# xmcd
#
# Track frame offsets:
#	150
#	14732
#	29790
#	49633
#	64262
#	82094
#	108333
#	123605
#	145990
#	161428
#	183803
#	202066
#
# Disc length: 2769 seconds
#
# Revision: 1
# Processed by: cddbd v1.5.2PL0 Copyright (c) Steve Scherf et al.
# Submitted via: audiograbber 1.81.03
#
DISCID=b10acf0c
DTITLE=Colt`Harley - II
DYEAR=2007
DGENRE=Country
TTITLE0=Where's That Loving Gone
TTITLE1=Rattlesnake In A Whiskey Jar
TTITLE2=Fast As You
TTITLE3=Bring Me Down
TTITLE4=Better Places
TTITLE5=Jet Black Cadillac
TTITLE6=Lynch Mob
TTITLE7=When I Say That I Love You
TTITLE8=Big Fat Lip
TTITLE9=I Keep Rolling
TTITLE10=She Don't Know
TTITLE11=Secret Track
EXTD=
EXTT0=
EXTT1=
EXTT2=
EXTT3=
EXTT4=
EXTT5=
EXTT6=
EXTT7=
EXTT8=
EXTT9=
EXTT10=
EXTT11=
PLAYORDER=
